<svg width="24" height="24" xmlns="http://www.w3.org/2000/svg">

 <g>
  <title>background</title>
  <rect fill="none" id="canvas_background" height="402" width="582" y="-1" x="-1"/>
 </g>
 <g>
  <title>Layer 1</title>
  <path style="--darkreader-inline-fill: #6a7a43;" id="svg_1" fill="#DDDDDD" d="m9.27642,11.7157zm-3.02642,-8.7157c-1.79493,0 -3.25,1.45507 -3.25,3.25l0,11.5c0,1.7949 1.45507,3.25 3.25,3.25l11.5,0c1.7949,0 3.25,-1.4551 3.25,-3.25l0,-11.5c0,-1.79493 -1.4551,-3.25 -3.25,-3.25l-11.5,0zm-1.75,3.25c0,-0.9665 0.7835,-1.75 1.75,-1.75l11.5,0c0.9665,0 1.75,0.7835 1.75,1.75l0,11.5c0,0.9665 -0.7835,1.75 -1.75,1.75l-11.5,0c-0.9665,0 -1.75,-0.7835 -1.75,-1.75l0,-11.5z"/>
 </g>
</svg>