<svg width="24" height="24" xmlns="http://www.w3.org/2000/svg">

 <g>
  <title>background</title>
  <rect fill="none" id="canvas_background" height="402" width="582" y="-1" x="-1"/>
 </g>
 <g>
  <title>Layer 1</title>
  <path id="svg_1" fill="#DDDDDD" d="m16.2802,9.78034c0.2929,-0.29288 0.2929,-0.76776 0,-1.06066c-0.2929,-0.2929 -0.7677,-0.29291 -1.0606,-0.00002l-4.4697,4.46944l-1.47348,-1.4734c-0.29289,-0.2929 -0.76777,-0.2929 -1.06066,0c-0.29289,0.2928 -0.29289,0.7677 0,1.0606l2.00384,2.0038c0.2928,0.2929 0.7677,0.2929 1.0606,0l5,-4.99976zm-10.0302,-6.78034c-1.79493,0 -3.25,1.45507 -3.25,3.25l0,11.5c0,1.7949 1.45507,3.25 3.25,3.25l11.5,0c1.7949,0 3.25,-1.4551 3.25,-3.25l0,-11.5c0,-1.79493 -1.4551,-3.25 -3.25,-3.25l-11.5,0zm-1.75,3.25c0,-0.9665 0.7835,-1.75 1.75,-1.75l11.5,0c0.9665,0 1.75,0.7835 1.75,1.75l0,11.5c0,0.9665 -0.7835,1.75 -1.75,1.75l-11.5,0c-0.9665,0 -1.75,-0.7835 -1.75,-1.75l0,-11.5z"/>
 </g>
</svg>