<svg width="32" height="32" xmlns="http://www.w3.org/2000/svg">

 <g>
  <title>background</title>
  <rect fill="none" id="canvas_background" height="402" width="582" y="-1" x="-1"/>
 </g>
 <g>
  <title>Layer 1</title>
  <path fill="#ffffff" id="svg_1" d="m15.59375,2.96875c-0.53069,0.01551 -1.0793,0.07541 -1.625,0.15625l-0.03125,0c-5.32467,0.86933 -9.63507,5.06495 -10.71875,10.375c-0.32423,1.51305 -0.30437,2.92297 -0.09375,4.3125c0.00733,0.00417 -0.00102,0.02398 0,0.03125c0.32926,2.34744 3.37407,3.37593 5.09375,1.65625c1.23172,-1.23172 3.04954,-1.23172 4.28125,0c1.23171,1.23172 1.23171,3.04953 0,4.28125c-1.71968,1.71968 -0.69119,4.76449 1.65625,5.09375c0.00727,0.001 0.02708,-0.00733 0.03125,0c1.37947,0.20909 2.78036,0.22349 4.28125,-0.09375c0.0098,-0.0018 0.02146,0.0018 0.03125,0c5.32404,-0.99124 9.50761,-5.40598 10.375,-10.71875l0,-0.03125c1.13181,-7.63975 -4.45207,-14.31199 -11.71875,-15c-0.51905,-0.04914 -1.03181,-0.07801 -1.5625,-0.0625zm0.03125,2c0.45237,-0.01627 0.90128,-0.00925 1.34375,0.03125c6.19464,0.56707 10.90568,6.21475 9.9375,12.75c-0.73101,4.47747 -4.31926,8.24295 -8.78125,9.0625l-0.03125,0c-1.27599,0.27343 -2.45528,0.27851 -3.65625,0.09375c-0.82144,-0.10268 -1.20092,-1.01783 -0.53125,-1.6875c1.96828,-1.96829 1.96828,-5.15671 0,-7.125c-1.96828,-1.96829 -5.15672,-1.96829 -7.125,0c-0.66967,0.66967 -1.58482,0.29019 -1.6875,-0.53125c-0.18476,-1.20097 -0.17968,-2.38026 0.09375,-3.65625c0.91632,-4.48995 4.58717,-8.08183 9.0625,-8.8125c0.4668,-0.06916 0.92263,-0.10873 1.375,-0.125zm-1.625,2.03125c-1.10457,0 -2,0.89543 -2,2c0,1.10457 0.89543,2 2,2c1.10457,0 2,-0.89543 2,-2c0,-1.10457 -0.89543,-2 -2,-2zm7,2c-1.10457,0 -2,0.89543 -2,2c0,1.10457 0.89543,2 2,2c1.10457,0 2,-0.89543 2,-2c0,-1.10457 -0.89543,-2 -2,-2zm-12,2c-1.10457,0 -2,0.89543 -2,2c0,1.10457 0.89543,2 2,2c1.10457,0 2,-0.89543 2,-2c0,-1.10457 -0.89543,-2 -2,-2zm14,5c-1.10457,0 -2,0.89543 -2,2c0,1.10457 0.89543,2 2,2c1.10457,0 2,-0.89543 2,-2c0,-1.10457 -0.89543,-2 -2,-2zm-4,5c-1.10457,0 -2,0.89543 -2,2c0,1.10457 0.89543,2 2,2c1.10457,0 2,-0.89543 2,-2c0,-1.10457 -0.89543,-2 -2,-2z"/>
 </g>
</svg>